<?xml version="1.0" encoding="UTF-8"?>
<svg id="Layer_1" data-name="Layer 1" xmlns="http://www.w3.org/2000/svg" viewBox="0 0 512 509.43">
  <defs>
    <style>
      .cls-1 {
        fill: #fff;
      }
    </style>
  </defs>
  <g id="SVGRepo_iconCarrier" data-name="SVGRepo iconCarrier">
    <g>
      <path class="cls-1" d="m95.85,144.64c2.17,0,4.35-.83,6-2.49,6.4-6.4,15.84-8.94,24.6-6.6,4.55,1.21,9.19-1.48,10.39-6.02,1.21-4.53-1.49-9.18-6.01-10.38-14.62-3.89-30.31.31-40.98,11-3.32,3.32-3.32,8.69,0,12.01,1.66,1.65,3.83,2.49,6,2.49Z"/>
      <path class="cls-1" d="m149.47,75.03c1.43.93,3.04,1.38,4.64,1.38,2.77,0,5.49-1.36,7.12-3.85,1.43-2.19,5.56-4.53,10.4-4.58,2.87-.03,6.78.79,9.42,4.69,2.62,3.88,7.91,4.9,11.78,2.28,3.89-2.63,4.92-7.91,2.28-11.79-5.27-7.8-13.59-12.45-23.61-12.16-10.06.08-19.67,4.9-24.49,12.27-2.57,3.93-1.47,9.19,2.46,11.75Z"/>
      <path class="cls-1" d="m508.55,62.26l-46.57-52.09c-7.91-8.69-19.84-12.13-31.13-8.99-11.31,3.12-19.77,12.23-22.04,23.55l-15.27,68.66h-28.12c-2.78-13.53-11.96-24.96-24.79-30.43-2.28-19.45-17.75-34.93-37.21-37.21-6.58-15.44-21.78-25.76-38.92-25.76-11.27,0-21.89,4.53-29.72,12.32-7.83-7.79-18.45-12.32-29.72-12.32-10.02,0-19.6,3.56-27.14,9.85-.2-.2-.46-.35-.66-.54-1.03-.96-2.12-1.82-3.26-2.65-.59-.43-1.15-.88-1.76-1.27-1.19-.76-2.45-1.38-3.73-1.99-.63-.3-1.23-.65-1.88-.91-1.41-.57-2.88-.98-4.37-1.35-.58-.14-1.13-.37-1.72-.48-2.1-.41-4.24-.65-6.43-.65-15.8,0-29.12,10.85-32.89,25.49-21.29-.93-39.08,14.61-42.81,34.66-17.18,3.19-30.77,16.78-33.96,33.96-19.71,3.67-34.67,20.99-34.67,41.74,0,10.15,3.73,19.35,9.69,26.66-10.48,3.16-18.18,12.79-18.18,24.28s7.31,20.62,17.37,24.03l15.23,266.58c1.03,17.96,15.92,32.03,33.91,32.03h.33l-7.49-297.17h16.99l7.5,297.17h24.84l-9.86-297.17h16.99l9.85,297.17h101.83l-.02-.47c3.54-1.02,6.18-4.15,6.18-8.02,0-4.11-2.96-7.37-6.84-8.16l-14.22-348.44h17l14.9,365.09h35.69v-187.49c-20.27-11.77-33.96-33.66-33.96-58.74s13.69-46.97,33.96-58.74v-60.13h16.98v53.12c.31-.08.62-.1.93-.18,1.99-.48,4.02-.87,6.07-1.18.69-.1,1.36-.23,2.05-.31,2.61-.31,5.25-.5,7.94-.5s5.33.2,7.94.5c.69.08,1.36.21,2.05.31,2.05.31,4.08.7,6.07,1.18.31.08.62.1.93.18v-53.12h16.98v60.13c20.27,11.77,33.96,33.66,33.96,58.74s-13.69,46.97-33.96,58.74v187.48h33.96v-8.49l16.57-356.6h17.01l-16.61,356.99v8.1h4.08c21.3,0,38.79-16.67,39.8-37.97l15.18-327.12h8.87c4.7,0,8.49-3.8,8.49-8.49v-33.96c0-4.69-3.79-8.49-8.49-8.49h-57.34l14.49-65.15c1.05-5.27,4.78-9.27,9.96-10.71,5.16-1.44,10.42.08,13.98,4.01l46.54,52.04c3.12,3.51,8.49,3.79,11.99.67,3.49-3.13,3.79-8.5.66-12ZM52.23,110.38c4.7,0,8.49-3.8,8.49-8.49,0-14.04,11.43-25.47,25.47-25.47,9.06,0,17.52,4.88,22.07,12.74,1.57,2.72,4.41,4.24,7.35,4.24,1.44,0,2.9-.37,4.25-1.15,4.05-2.35,5.44-7.54,3.09-11.6-5.92-10.22-15.83-17.35-27.08-20.01,3.16-10.48,12.79-18.18,24.28-18.18,1.92,0,3.96.31,6.45.96,2.64.71,5.44.09,7.54-1.65,2.11-1.72,3.26-4.35,3.1-7.06-.02-.38-.06-.75-.1-.75h0c0-9.36,7.62-16.97,16.98-16.97,1.48,0,2.91.25,4.3.63.26.07.52.14.77.22,1.38.44,2.72,1.03,3.94,1.81.03.02.07.05.1.08,2.63,1.71,4.81,4.13,6.2,7.08,0,0,.02.03.02.03.68,1.45,1.22,2.98,1.47,4.62.62,4.22,4.25,7.25,8.39,7.25.41,0,.82-.03,1.25-.09,4.64-.68,7.85-5,7.16-9.64-.2-1.36-.6-2.64-.96-3.94,4.78-5.02,11.31-8.05,18.31-8.05,9.23,0,17.76,5.14,22.26,13.41,2.97,5.47,11.94,5.47,14.91,0,4.5-8.27,13.03-13.41,22.26-13.41,8.39,0,15.96,4.18,20.61,10.75-9.71,3.24-18.16,9.87-23.42,18.97-2.35,4.06-.96,9.25,3.09,11.6,1.34.77,2.8,1.14,4.25,1.14,2.94,0,5.79-1.52,7.35-4.25,4.41-7.62,12.52-12.35,21.29-12.63.46-.02.88-.06.79-.1,14.04,0,25.47,11.43,25.5,24.92-.04.28-.13,1.09-.14,1.36-.16,4.01,2.5,7.59,6.38,8.58,8.41,2.15,14.94,8.3,17.73,16.08h-185.32c-4.7,0-8.49,3.8-8.49,8.49v33.96c0,4.69,3.79,8.49,8.49,8.49h8.87l.79,16.98H52.23c-14.04,0-25.47-11.43-25.47-25.47s11.43-25.47,25.47-25.47Zm56.1,84.91H26.76c-4.69,0-8.49-3.81-8.49-8.49s3.8-8.49,8.49-8.49h146.29l.79,16.98h-65.51Zm28.81,118.87c0-26.51,15.65-50.31,39.38-61.36l.87,18.65c-14.26,9.25-23.26,25.24-23.26,42.71,0,19.28,10.8,36.48,27.34,45.1l.88,18.83c-26.91-9.53-45.2-34.95-45.2-63.93ZM459.77,110.38v16.98H171.1v-16.98h288.67Z"/>
      <path class="cls-1" d="m366.38,263.2c0-20.33-12-37.86-29.25-46.03-1.66-.78-3.35-1.48-5.07-2.07-.04-.02-.08-.03-.14-.05-10.71-3.69-22.27-3.69-32.98,0-.05.02-.08.03-.13.04-1.72.6-3.41,1.29-5.08,2.08-17.25,8.17-29.25,25.7-29.25,46.03s12,37.86,29.25,46.03c1.66.79,3.36,1.48,5.08,2.08.04,0,.08.03.13.04,10.71,3.69,22.27,3.69,32.98,0,.05-.02.09-.03.14-.05,1.72-.59,3.4-1.29,5.07-2.07,17.25-8.17,29.25-25.7,29.25-46.03Zm-50.94,33.96c-18.73,0-33.96-15.23-33.96-33.96,0-4.69,3.79-8.49,8.49-8.49s8.49,3.8,8.49,8.49c0,9.36,7.62,16.98,16.98,16.98,4.7,0,8.49,3.8,8.49,8.49s-3.79,8.49-8.49,8.49Zm25.47-25.47c-4.7,0-8.49-3.8-8.49-8.49,0-9.36-7.62-16.98-16.98-16.98-4.7,0-8.49-3.8-8.49-8.49s3.79-8.49,8.49-8.49c18.73,0,33.96,15.23,33.96,33.96,0,4.69-3.79,8.49-8.49,8.49Z"/>
      <path class="cls-1" d="m325.28,330.33c-.62.09-1.24.21-1.87.29-2.62.31-5.28.51-7.98.51s-5.37-.2-7.99-.51c-.62-.08-1.24-.2-1.86-.29-2.11-.31-4.18-.7-6.21-1.21-.31-.07-.62-.09-.92-.17v180.47h33.96v-180.47c-.31.08-.62.1-.92.17-2.04.5-4.11.9-6.21,1.21Z"/>
    </g>
  </g>
</svg>