<svg xmlns="http://www.w3.org/2000/svg" xmlns:xlink="http://www.w3.org/1999/xlink" xmlns:svgjs="http://svgjs.com/svgjs" width="512" height="512" x="0" y="0" viewBox="0 0 24 24" style="enable-background:new 0 0 512 512" xml:space="preserve" class=""><g><g fill="#61c5fa"><path d="M6 0H0v6h2V2h4zM18 0h6v6h-2V2h-4zM18 24h6v-6h-2v4h-4zM6 24H0v-6h2v4h4z" fill="#076fd9" data-original="#61c5fa" class="" opacity="1"></path></g><path fill="#468ff1" d="M13 4h7v7h-7z" data-original="#468ff1" class="" opacity="1"></path><path fill="#3870cf" d="M8 8h3v3H8zM15 6h3v3h-3z" data-original="#3870cf" class=""></path><path fill="#468ff1" d="M13 13h7v7h-7z" data-original="#468ff1" class="" opacity="1"></path><path fill="#3870cf" d="M15 15h3v3h-3z" data-original="#3870cf" class=""></path><path fill="#468ff1" d="M4 13h7v7H4z" data-original="#468ff1" class="" opacity="1"></path><path fill="#3870cf" d="M6 15h3v3H6z" data-original="#3870cf" class=""></path><path fill="#468ff1" d="M11 4v2H6v5H4V4z" data-original="#468ff1" class="" opacity="1"></path><path fill="#276eb7" d="M0 13h24v2H0z" data-original="#6dedd4" class="" opacity="1"></path></g></svg>