<svg xmlns="http://www.w3.org/2000/svg" xmlns:xlink="http://www.w3.org/1999/xlink" xmlns:svgjs="http://svgjs.com/svgjs" width="512" height="512" x="0" y="0" viewBox="0 0 682.667 682.667" style="enable-background:new 0 0 512 512" xml:space="preserve" class=""><g><defs><clipPath id="b" clipPathUnits="userSpaceOnUse"><path d="M0 512h512V0H0Z" fill="#076fd9" data-original="#000000" class="" opacity="1"></path></clipPath></defs><mask id="a"><rect width="100%" height="100%" fill="#ffffff" data-original="#ffffff"></rect><path d="M0 0c-11.046 0-20 8.954-20 20s8.954 20 20 20 20-8.954 20-20S11.046 0 0 0" style="fill-opacity:1;fill-rule:nonzero;stroke:none" transform="matrix(1.33333 0 0 -1.33333 341.333 588)" fill="#ffffff" data-original="#ffffff"></path><path d="M0 0c9.08 0 18.052 5.984 20.515 14.648L65.94 174.447C69.586 187.272 59.865 200 46.426 200c-9.08 0-17.052-5.984-19.515-14.648L-18.515 25.553C-22.16 12.728-13.439 0 0 0" style="fill-opacity:1;fill-rule:nonzero;stroke:none" transform="matrix(1.33333 0 0 -1.33333 431.05 474.667)" fill="#ffffff" data-original="#ffffff"></path></mask><g mask="url(#a)"><g clip-path="url(#b)" transform="matrix(1.33333 0 0 -1.33333 0 682.667)"><path d="M0 0v31.122c0 33.137-26.863 60-60 60h-194c-33.137 0-60-26.863-60-60v-352c0-33.137 26.863-60 60-60h194c33.137 0 60 26.863 60 60V-283" style="stroke-width:40;stroke-linecap:round;stroke-linejoin:miter;stroke-miterlimit:10;stroke-dasharray:none;stroke-opacity:1" transform="translate(413 401)" fill="none" stroke="#076fd9" stroke-width="40" stroke-linecap="round" stroke-linejoin="miter" stroke-miterlimit="10" stroke-dasharray="none" stroke-opacity="" data-original="#000000" class="" opacity="1"></path><path d="M0 0c-11.046 0-20 8.954-20 20s8.954 20 20 20 20-8.954 20-20S11.046 0 0 0" style="fill-opacity:1;fill-rule:nonzero;stroke:none" transform="translate(256 71)" fill="#076fd9" data-original="#000000" class="" opacity="1"></path><path d="M0 0h40" style="stroke-width:40;stroke-linecap:round;stroke-linejoin:miter;stroke-miterlimit:10;stroke-dasharray:none;stroke-opacity:1" transform="translate(236 421)" fill="none" stroke="#076fd9" stroke-width="40" stroke-linecap="round" stroke-linejoin="miter" stroke-miterlimit="10" stroke-dasharray="none" stroke-opacity="" data-original="#000000" class="" opacity="1"></path><path d="M0 0c9.08 0 18.052 5.984 20.515 14.648L65.94 174.447C69.586 187.272 59.865 200 46.426 200c-9.08 0-17.052-5.984-19.515-14.648L-18.515 25.553C-22.16 12.728-13.439 0 0 0" style="fill-opacity:1;fill-rule:nonzero;stroke:none" transform="translate(323.287 156)" fill="#076fd9" data-original="#000000" class="" opacity="1"></path><path d="m0 0-49.526-41.524c-12.632-10.728-12.632-30.224 0-40.952L0-124" style="stroke-width:40;stroke-linecap:round;stroke-linejoin:round;stroke-miterlimit:10;stroke-dasharray:none;stroke-opacity:1" transform="translate(256 317)" fill="none" stroke="#076fd9" stroke-width="40" stroke-linecap="round" stroke-linejoin="round" stroke-miterlimit="10" stroke-dasharray="none" stroke-opacity="" data-original="#000000" class="" opacity="1"></path><path d="m0 0 48.526-41.524c12.632-10.728 12.632-30.224 0-40.952L0-124" style="stroke-width:40;stroke-linecap:round;stroke-linejoin:round;stroke-miterlimit:10;stroke-dasharray:none;stroke-opacity:1" transform="translate(434 317)" fill="none" stroke="#076fd9" stroke-width="40" stroke-linecap="round" stroke-linejoin="round" stroke-miterlimit="10" stroke-dasharray="none" stroke-opacity="" data-original="#000000" class="" opacity="1"></path></g></g></g></svg>