<svg xmlns="http://www.w3.org/2000/svg" viewBox="0 0 2760 2833" width="2760" height="2833"><title>key-skills-svg</title><style>		.s0 { fill: #076fd9 } 	</style><g id="Layer"><g id="Layer"><path id="Layer" fill-rule="evenodd" class="s0" d="m2148 2172h-814c-50 0-90-41-90-91v-252h5c21 0 40-11 51-29l9-14 9 14c11 18 30 29 51 29 21 0 41-11 52-29l8-14 9 14c11 18 30 29 51 29 21 0 41-11 52-29l8-14 9 14c11 18 30 29 52 29 21 0 40-11 51-29l9-14 8 14c1 2 2 3 3 4v61c0 33 27 60 60 60 33 0 60-27 60-60v-382c0-33-27-60-60-60-33 0-60 27-60 60v9h-437v-225c0-49 40-90 90-90h814c50 0 90 41 90 90v814c0 50-40 91-90 91z"></path><path id="Layer" fill-rule="evenodd" class="s0" d="m2136 1217h-97c11 0 20-9 20-20v-208c0-127-104-230-231-230h-175c-127 0-230 103-230 230v208c0 11 9 20 20 20h-97c-11 0-20-9-20-20v-208c0-180 147-327 327-327h175c181 0 328 147 328 327v208c0 11-9 20-20 20zm-395 668c-11 0-20-9-20-20v-382c0-11 9-20 20-20 11 0 20 9 20 20v382c0 11-9 20-20 20z"></path><path id="Layer" fill-rule="evenodd" class="s0" d="m1741 1789h-11c-7 0-14-3-17-9l-43-72-43 72c-4 6-10 9-17 9q-12 0-18-9l-43-72-43 72c-3 6-10 9-17 9-7 0-13-3-17-9l-43-72-43 72c-3 6-10 9-17 9-7 0-13-3-17-9l-43-72-43 72c-4 6-10 9-17 9h-104c16-39 25-83 25-128 0-46-9-89-25-129h596c11 0 20 9 20 20v217c0 11-9 20-20 20zm-910 171c-165 0-300-134-300-299 0-165 135-300 300-300 165 0 299 135 299 300 0 165-134 299-299 299zm115-299c0-64-52-115-115-115-64 0-115 51-115 115 0 63 51 115 115 115 63 0 115-52 115-115zm-40 0c0 41-34 75-75 75-42 0-75-34-75-75 0-42 33-75 75-75 41 0 75 33 75 75z"></path></g></g></svg>